<?xml version="1.0" encoding="UTF-8" standalone="no"?><!DOCTYPE svg PUBLIC "-//W3C//DTD SVG 1.1//EN" "http://www.w3.org/Graphics/SVG/1.1/DTD/svg11.dtd"><!-- Generated by graphviz version 2.40.1 (20161225.0304)
 --><!-- Title: %0 Pages: 1 --><svg xmlns="http://www.w3.org/2000/svg" xmlns:xlink="http://www.w3.org/1999/xlink" width="205pt" height="167pt" viewBox="0.00 0.00 205.24 167.39">
<g id="graph0" class="graph" transform="scale(1 1) rotate(0) translate(4 163.3869)">
<title>%0</title>
<polygon fill="#ffffff" stroke="transparent" points="-4,4 -4,-163.3869 201.2404,-163.3869 201.2404,4 -4,4"/>
<!-- x1 -->
<g id="node1" class="node">
<title>x1</title>
<ellipse fill="none" stroke="#000000" cx="20.6935" cy="-108.6935" rx="20.8887" ry="20.8887"/>
<text text-anchor="middle" x="20.6935" y="-104.4935" font-family="Times,serif" font-size="14.00" fill="#000000">x1</text>
</g>
<!-- n1 -->
<g id="node2" class="node">
<title>n1</title>
<ellipse fill="none" stroke="#000000" cx="98.0804" cy="-138.6935" rx="20.8887" ry="20.8887"/>
<text text-anchor="middle" x="98.0804" y="-134.4935" font-family="Times,serif" font-size="14.00" fill="#000000">n1</text>
</g>
<!-- x1&#45;&gt;n1 -->
<g id="edge1" class="edge">
<title>x1-&gt;n1</title>
<path fill="none" stroke="#000000" d="M40.2214,-116.2637C48.9282,-119.639 59.3672,-123.6858 68.9666,-127.4072"/>
<polygon fill="#000000" stroke="#000000" points="67.9696,-130.7744 78.5586,-131.1256 70.4998,-124.2476 67.9696,-130.7744"/>
</g>
<!-- n2 -->
<g id="node3" class="node">
<title>n2</title>
<ellipse fill="none" stroke="#000000" cx="98.0804" cy="-79.6935" rx="20.8887" ry="20.8887"/>
<text text-anchor="middle" x="98.0804" y="-75.4935" font-family="Times,serif" font-size="14.00" fill="#000000">n2</text>
</g>
<!-- x1&#45;&gt;n2 -->
<g id="edge2" class="edge">
<title>x1-&gt;n2</title>
<path fill="none" stroke="#000000" d="M40.2214,-101.3755C48.9282,-98.1127 59.3672,-94.2009 68.9666,-90.6035"/>
<polygon fill="#000000" stroke="#000000" points="70.4227,-93.7956 78.5586,-87.009 67.9663,-87.2408 70.4227,-93.7956"/>
</g>
<!-- n3 -->
<g id="node4" class="node">
<title>n3</title>
<ellipse fill="none" stroke="#000000" cx="98.0804" cy="-20.6935" rx="20.8887" ry="20.8887"/>
<text text-anchor="middle" x="98.0804" y="-16.4935" font-family="Times,serif" font-size="14.00" fill="#000000">n3</text>
</g>
<!-- x1&#45;&gt;n3 -->
<g id="edge3" class="edge">
<title>x1-&gt;n3</title>
<path fill="none" stroke="#000000" d="M34.5287,-92.9608C46.5237,-79.3207 64.0458,-59.3956 77.6549,-43.9201"/>
<polygon fill="#000000" stroke="#000000" points="80.3894,-46.1106 84.3649,-36.2899 75.1329,-41.488 80.3894,-46.1106"/>
</g>
<!-- nF -->
<g id="node6" class="node">
<title>nF</title>
<ellipse fill="none" stroke="#000000" cx="176.0071" cy="-79.6935" rx="21.4691" ry="21.4691"/>
<text text-anchor="middle" x="176.0071" y="-75.4935" font-family="Times,serif" font-size="14.00" fill="#000000">nF</text>
</g>
<!-- n1&#45;&gt;nF -->
<g id="edge7" class="edge">
<title>n1-&gt;nF</title>
<path fill="none" stroke="#000000" d="M114.6066,-126.1811C125.1043,-118.233 138.8984,-107.7893 150.7522,-98.8144"/>
<polygon fill="#000000" stroke="#000000" points="153.106,-101.4224 158.9659,-92.5957 148.8805,-95.8415 153.106,-101.4224"/>
</g>
<!-- n2&#45;&gt;nF -->
<g id="edge8" class="edge">
<title>n2-&gt;nF</title>
<path fill="none" stroke="#000000" d="M118.9633,-79.6935C126.7839,-79.6935 135.8532,-79.6935 144.4273,-79.6935"/>
<polygon fill="#000000" stroke="#000000" points="144.5232,-83.1936 154.5231,-79.6935 144.5231,-76.1936 144.5232,-83.1936"/>
</g>
<!-- n3&#45;&gt;nF -->
<g id="edge9" class="edge">
<title>n3-&gt;nF</title>
<path fill="none" stroke="#000000" d="M114.6066,-33.2058C125.1043,-41.1539 138.8984,-51.5976 150.7522,-60.5725"/>
<polygon fill="#000000" stroke="#000000" points="148.8805,-63.5454 158.9659,-66.7912 153.106,-57.9645 148.8805,-63.5454"/>
</g>
<!-- x2 -->
<g id="node5" class="node">
<title>x2</title>
<ellipse fill="none" stroke="#000000" cx="20.6935" cy="-49.6935" rx="20.8887" ry="20.8887"/>
<text text-anchor="middle" x="20.6935" y="-45.4935" font-family="Times,serif" font-size="14.00" fill="#000000">x2</text>
</g>
<!-- x2&#45;&gt;n1 -->
<g id="edge4" class="edge">
<title>x2-&gt;n1</title>
<path fill="none" stroke="#000000" d="M34.5287,-65.6049C46.5237,-79.3999 64.0458,-99.5515 77.6549,-115.2029"/>
<polygon fill="#000000" stroke="#000000" points="75.1621,-117.6701 84.3649,-122.9198 80.4445,-113.077 75.1621,-117.6701"/>
</g>
<!-- x2&#45;&gt;n2 -->
<g id="edge5" class="edge">
<title>x2-&gt;n2</title>
<path fill="none" stroke="#000000" d="M40.2214,-57.2637C48.9282,-60.639 59.3672,-64.6858 68.9666,-68.4072"/>
<polygon fill="#000000" stroke="#000000" points="67.9696,-71.7744 78.5586,-72.1256 70.4998,-65.2476 67.9696,-71.7744"/>
</g>
<!-- x2&#45;&gt;n3 -->
<g id="edge6" class="edge">
<title>x2-&gt;n3</title>
<path fill="none" stroke="#000000" d="M40.2214,-42.3755C48.9282,-39.1127 59.3672,-35.2009 68.9666,-31.6035"/>
<polygon fill="#000000" stroke="#000000" points="70.4227,-34.7956 78.5586,-28.009 67.9663,-28.2408 70.4227,-34.7956"/>
</g>
</g>
</svg>